<svg xmlns="http://www.w3.org/2000/svg" viewBox="0 0 511.88 511.88">
    <g>
        <g>
            <circle class="cls-1" fill="#fff" cx="255.94" cy="255.94" r="255.94" />
            <g>
                <path fill="#231f20"
                    d="m272.11,229.23h-23.6v-23.6c0-5.41-4.36-9.76-9.76-9.76s-9.76,4.36-9.76,9.76v23.6h-23.6c-5.41,0-9.76,4.36-9.76,9.76s4.36,9.76,9.76,9.76h23.6v23.6c0,5.41,4.36,9.76,9.76,9.76s9.76-4.36,9.76-9.76v-23.6h23.6c5.41,0,9.76-4.36,9.76-9.76s-4.4-9.76-9.76-9.76Z" />
                <path fill="#231f20"
                    d="m238.8,319.45c-44.46,0-80.5-35.99-80.5-80.45s36.04-80.45,80.5-80.45,80.45,36.04,80.45,80.45-36.04,80.45-80.45,80.45h0Zm131.52,37.33l-54.23-54.23c14.21-17.28,22.78-39.44,22.78-63.56,0-55.28-44.8-100.13-100.13-100.13s-100.08,44.85-100.08,100.13,44.8,100.13,100.13,100.13c24.12,0,46.23-8.52,63.51-22.73l54.23,54.23c2.49,2.54,10.1,3.78,13.83,0,3.78-3.83,3.78-10-.05-13.83h0Z" />
            </g>
        </g>
    </g>
</svg>
